<svg id="Layer_1" data-name="Layer 1" xmlns="http://www.w3.org/2000/svg" viewBox="0 0 1080 1080"><defs><style>.cls-1{fill:#f1d014;}.cls-2{fill:#010101;}</style></defs><rect class="cls-1" width="1080" height="1080"/><path class="cls-2" d="M417.21,583.26h67c1.18,19,17.18,30.81,54.52,31.11,33.77.29,50.37-10.08,50.37-24.3,0-11-7.71-19.26-33.78-23.4l-31.41-5c-47.11-8-100.44-16-100.44-76.44,0-48.6,39.7-77.93,115.85-77.93,69,0,117.33,20.74,116.44,88.89H589.35c-3.26-18.67-18.37-30.52-51.85-30.52-29.33,0-42.66,9.19-42.66,23.11,0,9.78,6.81,18.67,28.14,22.22l26.37,4.74C598.24,524,662.83,527.56,662.83,593c0,52.45-41.48,80-124.14,79.7S415.73,645.77,417.21,583.26Z"/></svg>